<?xml version="1.0" encoding="utf-8"?>
<!-- Generator: Adobe Illustrator 18.1.1, SVG Export Plug-In . SVG Version: 6.00 Build 0)  -->
<svg version="1.1" id="github" xmlns="http://www.w3.org/2000/svg" xmlns:xlink="http://www.w3.org/1999/xlink" x="0px" y="0px"
	 viewBox="0 0 612 792" enable-background="new 0 0 612 792" xml:space="preserve">
<circle cx="306" cy="396" r="293.8"/>
<path fill="#F7F7F7" d="M306,246.1c-82.8,0-149.9,67.1-149.9,149.9S223.2,545.9,306,545.9S455.9,478.8,455.9,396
	S388.8,246.1,306,246.1z M395,485c-11.6,11.6-25,20.7-40,27c-3.8,1.6-7.7,3-11.6,4.2v-22.5c0-11.8-4.1-20.5-12.2-26.1
	c5.1-0.5,9.7-1.2,14-2.1c4.2-0.9,8.7-2.1,13.5-3.8c4.7-1.7,9-3.6,12.7-5.9c3.8-2.3,7.4-5.3,10.8-8.9s6.4-7.8,8.7-12.4
	c2.3-4.6,4.2-10.2,5.6-16.7s2.1-13.6,2.1-21.5c0-15.1-4.9-28-14.8-38.7c4.5-11.7,4-24.5-1.5-38.2l-3.7-0.4
	c-2.5-0.3-7.1,0.8-13.7,3.2c-6.6,2.4-14,6.4-22.2,12c-11.6-3.2-23.7-4.8-36.2-4.8c-12.6,0-24.6,1.6-36,4.8
	c-5.2-3.5-10.1-6.4-14.7-8.7c-4.6-2.3-8.3-3.9-11.1-4.7c-2.8-0.8-5.4-1.3-7.8-1.5s-3.9-0.2-4.6-0.1c-0.7,0.1-1.2,0.2-1.5,0.3
	c-5.5,13.9-6,26.6-1.5,38.2c-9.9,10.6-14.8,23.5-14.8,38.7c0,7.8,0.7,15,2.1,21.5c1.4,6.5,3.2,12.1,5.6,16.7
	c2.3,4.6,5.2,8.8,8.7,12.4c3.5,3.7,7.1,6.6,10.8,8.9c3.8,2.3,8,4.3,12.7,5.9c4.7,1.7,9.2,2.9,13.5,3.8c4.2,0.9,8.9,1.6,14,2.1
	c-8,5.5-12,14.2-12,26.1v22.9c-4.4-1.3-8.8-2.9-13.1-4.7c-15-6.3-28.5-15.4-40-27c-11.6-11.6-20.7-25-27-40c-6.6-15.5-9.9-32-9.9-49
	s3.3-33.5,9.9-49c6.3-15,15.4-28.5,27-40c11.6-11.6,25-20.7,40-27c15.5-6.6,32-9.9,49-9.9s33.5,3.3,49,9.9c15,6.3,28.5,15.4,40,27
	c11.6,11.6,20.7,25,27,40c6.6,15.5,9.9,32,9.9,49s-3.3,33.5-9.9,49C415.7,460,406.6,473.5,395,485L395,485z"/>
</svg>
