<?xml version="1.0" encoding="utf-8"?>
<!-- Generator: Adobe Illustrator 18.1.1, SVG Export Plug-In . SVG Version: 6.00 Build 0)  -->
<svg version="1.1" id="linkedin" xmlns="http://www.w3.org/2000/svg" xmlns:xlink="http://www.w3.org/1999/xlink" x="0px" y="0px"
	 viewBox="0 0 612 792" enable-background="new 0 0 612 792" xml:space="preserve">
<circle cx="306" cy="396" r="293.8"/>
<path fill="#F7F7F7" d="M405.6,246.1H206.4c-27.7,0-50.4,22.7-50.4,50.4v199.1c0,27.7,22.7,50.4,50.4,50.4h199.1
	c27.7,0,50.4-22.7,50.4-50.4V296.4C455.9,268.7,433.3,246.1,405.6,246.1z M268.5,489.7H231V358.5h37.5V489.7z M249.8,339.8
	c-10.4,0-18.7-8.4-18.7-18.7s8.4-18.7,18.7-18.7c10.4,0,18.7,8.4,18.7,18.7S260.1,339.8,249.8,339.8z M399.7,489.7h-37.5v-75
	c0-10.4-8.4-18.7-18.7-18.7s-18.7,8.4-18.7,18.7v75h-37.5V358.5h37.5v23.3c7.7-10.6,19.6-23.3,32.8-23.3c23.3,0,42.2,21,42.2,46.9
	L399.7,489.7L399.7,489.7z"/>
</svg>
