<?xml version="1.0" encoding="utf-8"?>
<!-- Generator: Adobe Illustrator 18.1.1, SVG Export Plug-In . SVG Version: 6.00 Build 0)  -->
<svg version="1.1" id="Capa_1" xmlns="http://www.w3.org/2000/svg" xmlns:xlink="http://www.w3.org/1999/xlink" x="0px" y="0px"
	 viewBox="-62 154.8 485.2 485.2" enable-background="new -62 154.8 485.2 485.2" xml:space="preserve">
<g>
	<g>
		<path fill="#737373" d="M409.9,562.4L298.6,451c-16.6,25.8-38.5,47.7-64.3,64.3l111.3,111.3c17.8,17.8,46.6,17.8,64.3,0
			C427.7,608.9,427.7,580.1,409.9,562.4z"/>
		<path fill="#737373" d="M301.9,336.7c0-100.5-81.5-182-182-182c-100.5,0-182,81.5-182,182s81.5,182,182,182
			C220.4,518.7,301.9,437.2,301.9,336.7z M120,473.2c-75.3,0-136.5-61.2-136.5-136.5S44.7,200.3,120,200.3
			c75.2,0,136.5,61.2,136.5,136.5S195.2,473.2,120,473.2z"/>
		<path fill="#737373" d="M13.8,336.7h30.3c0-41.8,34-75.8,75.8-75.8v-30.3C61.4,230.6,13.8,278.2,13.8,336.7z"/>
	</g>
</g>
</svg>
